# xmcd
#
# Track frame offsets:
# 150
# 17342
# 32295
# 46305
# 61492
# 75560
# 88427
# 110742
# 125410
# 142135
#
# Disc length: 2072 seconds
#
#
# Revision: 0
# Processed by: cddbd v1.5.1PL0 Copyright (c) Steve Scherf et al.
# Submitted via: FreeRIP 2.70 
#
DISCID=8208160a
DTITLE=Biggest Country Duets Of The 80's
DYEAR=1997
DGENRE=Country
TTITLE0=When You Get To The Heart - Barbara Mandrell With The Oak Ridge Boys
TTITLE1=Saturday Night Special - Conway Twitty With Vince Gill
TTITLE2=It Should Hav Been Love By Now - Barbara Mandrell With Lee Greenwood
TTITLE3=Somewhere Between Ragged And Right - John Anderson With Waylon Jennings
TTITLE4=The Hand That Rocks The Cradle - Steve Wariner With Glen Campbell
TTITLE5=It's True Love - Conway Twitty and Loretta Lynn
TTITLE6=The Last Cowboy Song - Ed Bruce With Willie Nelson
TTITLE7=Overnight Sensation - Barbara Mandrell With Steve Wariner
TTITLE8=Boxcar's My Home - Boxcar Willie With Willie Nelson
TTITLE9=Dream Lover - Tanya Tucker With Glen Campbell
EXTD=Entered By Itaot...
EXTT0=
EXTT1=
EXTT2=
EXTT3=
EXTT4=
EXTT5=
EXTT6=
EXTT7=
EXTT8=
EXTT9=
PLAYORDER=
